<mxfile host="app.diagrams.net" modified="2020-11-28T14:54:22.255Z" agent="5.0 (X11)" etag="BZljwBJgtXIfJXtqLbuN" version="13.10.4" type="github">
  <diagram id="RD8ehZkxTknp_T7p32pw" name="Page-1">
    <mxGraphModel dx="2033" dy="752" grid="1" gridSize="10" guides="1" tooltips="1" connect="1" arrows="1" fold="1" page="1" pageScale="1" pageWidth="827" pageHeight="1169" math="0" shadow="0">
      <root>
        <mxCell id="0" />
        <mxCell id="1" parent="0" />
        <mxCell id="w7dyb-yiLlsYN1Ir9zAn-2" value="&lt;div style=&quot;font-size: 16px&quot; align=&quot;left&quot;&gt;&lt;ul&gt;&lt;li&gt;&lt;font style=&quot;font-size: 16px&quot;&gt;API1 - Retorna o valor fixo do metro quadrado&lt;/font&gt;&lt;/li&gt;&lt;/ul&gt;&lt;/div&gt;&lt;div style=&quot;font-size: 16px&quot; align=&quot;left&quot;&gt;&lt;ul&gt;&lt;li&gt;&lt;font style=&quot;font-size: 16px&quot;&gt;&lt;b&gt;Input&lt;/b&gt;: metro quadrado &lt;br&gt;&lt;/font&gt;&lt;/li&gt;&lt;li&gt;&lt;font style=&quot;font-size: 16px&quot;&gt;&lt;b&gt;Output&lt;/b&gt;: valor fixo do metro quadrado&lt;br&gt;&lt;/font&gt;&lt;/li&gt;&lt;/ul&gt;&lt;/div&gt;" style="text;html=1;strokeColor=none;fillColor=none;align=left;verticalAlign=middle;whiteSpace=wrap;rounded=0;" vertex="1" parent="1">
          <mxGeometry x="-680" y="130" width="290" height="100" as="geometry" />
        </mxCell>
        <mxCell id="w7dyb-yiLlsYN1Ir9zAn-8" value="&lt;div style=&quot;font-size: 16px&quot; align=&quot;left&quot;&gt;&lt;ul&gt;&lt;li&gt;&lt;font style=&quot;font-size: 16px&quot;&gt;Seu serviço deve ser acessível através de uma API REST&lt;br&gt;&lt;/font&gt;&lt;/li&gt;&lt;li&gt;&lt;font style=&quot;font-size: 16px&quot;&gt;Você deverá desenvolver 2 APIs&lt;br&gt;&lt;/font&gt;&lt;/li&gt;&lt;li&gt;&lt;font style=&quot;font-size: 16px&quot;&gt;Seu serviço deve validar o valor de entrada&lt;br&gt;&lt;/font&gt;&lt;/li&gt;&lt;li&gt;&lt;font style=&quot;font-size: 16px&quot;&gt;O quantidade de metros quadrados deve estar entre 10 e 10.000&lt;br&gt;&lt;/font&gt;&lt;/li&gt;&lt;li&gt;&lt;font style=&quot;font-size: 16px&quot;&gt;Apesar do valor do metro quadrado ser fixo, desenvolva como se esse valor tivesse vindo de um base de dados&lt;br&gt;&lt;/font&gt;&lt;/li&gt;&lt;li&gt;&lt;font style=&quot;font-size: 16px&quot;&gt;O valor do métro quadrado dever ser obtido chamando a API1&lt;br&gt;&lt;/font&gt;&lt;/li&gt;&lt;li&gt;&lt;font style=&quot;font-size: 16px&quot;&gt;Disponibilizar os serviços Online&lt;br&gt;&lt;/font&gt;&lt;/li&gt;&lt;/ul&gt;&lt;/div&gt;" style="text;html=1;align=left;verticalAlign=middle;resizable=0;points=[];autosize=1;" vertex="1" parent="1">
          <mxGeometry x="-680" y="310" width="850" height="140" as="geometry" />
        </mxCell>
        <mxCell id="w7dyb-yiLlsYN1Ir9zAn-9" value="&lt;h1&gt;Objetivos&lt;br&gt;&lt;/h1&gt;&lt;p&gt;&lt;br&gt;&lt;/p&gt;" style="text;html=1;strokeColor=none;fillColor=none;spacing=5;spacingTop=-20;whiteSpace=wrap;overflow=hidden;rounded=0;" vertex="1" parent="1">
          <mxGeometry x="-650" y="80" width="190" height="30" as="geometry" />
        </mxCell>
        <mxCell id="w7dyb-yiLlsYN1Ir9zAn-10" value="&lt;h1&gt;Requisitos&lt;br&gt;&lt;/h1&gt;&lt;p&gt;&lt;br&gt;&lt;/p&gt;" style="text;html=1;strokeColor=none;fillColor=none;spacing=5;spacingTop=-20;whiteSpace=wrap;overflow=hidden;rounded=0;" vertex="1" parent="1">
          <mxGeometry x="-650" y="260" width="190" height="30" as="geometry" />
        </mxCell>
        <mxCell id="w7dyb-yiLlsYN1Ir9zAn-11" value="&lt;h1&gt;Tarefas&lt;/h1&gt;&lt;p style=&quot;font-size: 16px&quot;&gt;&lt;br&gt;&lt;/p&gt;" style="text;html=1;strokeColor=none;fillColor=none;spacing=5;spacingTop=-20;whiteSpace=wrap;overflow=hidden;rounded=0;" vertex="1" parent="1">
          <mxGeometry x="-650" y="510" width="190" height="40" as="geometry" />
        </mxCell>
        <mxCell id="w7dyb-yiLlsYN1Ir9zAn-13" value="&lt;div style=&quot;font-size: 16px&quot; align=&quot;left&quot;&gt;&lt;ul&gt;&lt;li&gt;&lt;font style=&quot;font-size: 16px&quot;&gt;HTTP POST passando como parâmetros: &lt;b&gt;m²&lt;br&gt;&lt;/b&gt;&lt;/font&gt;&lt;/li&gt;&lt;li&gt;&lt;font style=&quot;font-size: 16px&quot;&gt;Validação da requisição (parâmetros, autenticação)&lt;br&gt;&lt;/font&gt;&lt;/li&gt;&lt;li&gt;&lt;font style=&quot;font-size: 16px&quot;&gt;Validação da quantidade de metros quadrados (deve estar entre 10 e 10.000)&lt;/font&gt;&lt;/li&gt;&lt;li&gt;&lt;font style=&quot;font-size: 16px&quot;&gt;Preço do metro quadrado &quot;hard-coded&quot; por localidade&lt;br&gt;&lt;/font&gt;&lt;/li&gt;&lt;li&gt;&lt;font style=&quot;font-size: 16px&quot;&gt;O valor do metro quadrado dever ser obtido chamando a API1&lt;br&gt;&lt;/font&gt;&lt;/li&gt;&lt;/ul&gt;&lt;/div&gt;" style="text;html=1;align=left;verticalAlign=middle;resizable=0;points=[];autosize=1;" vertex="1" parent="1">
          <mxGeometry x="-680" y="575" width="600" height="110" as="geometry" />
        </mxCell>
      </root>
    </mxGraphModel>
  </diagram>
</mxfile>
